<svg width="128" height="128" viewBox="0 0 128 128" fill="none" xmlns="http://www.w3.org/2000/svg">
<g clip-path="url(#clip0_5_2)">
<rect width="128" height="128" fill="#ABA7A8"/>
<path d="M65.7992 31.232C64.3682 19.0923 64.257 13.824 63.743 0C63.2289 13.824 63.1177 19.0923 61.6867 31.232C61.167 35.6413 60.968 38.2281 59.6305 42.496C58.3187 46.6821 57.3942 50.2109 53.9759 53.76C50.4932 57.3759 45.751 58.88 42.6667 59.904C39.5823 60.928 26.0924 62.0896 15.4217 62.976C9.40666 63.4756 0 64 0 64H63.743H128C128 64 111.55 63.488 104.353 62.976C97.1566 62.464 87.1536 60.776 83.7912 59.904C80.4287 59.032 75.5017 56.1724 73.51 53.76C70.7136 50.3729 69.1777 46.7686 67.8554 42.496C66.5424 38.2534 66.3189 35.6413 65.7992 31.232Z" fill="#2F3833"/>
<path d="M65.5349 96.768C64.1097 108.908 63.999 114.176 63.487 128C62.975 114.176 62.8642 108.908 61.439 96.768C60.9213 92.3587 60.7231 89.7719 59.391 85.504C58.0845 81.3179 57.1637 77.7891 53.7591 74.24C50.2905 70.6241 45.5673 69.12 42.4953 68.096C39.4234 67.072 25.9876 65.9104 15.3598 65.024C9.36888 64.5244 0 64 0 64H63.487H127.486C127.486 64 111.102 64.512 103.934 65.024C96.7664 65.536 86.8036 67.224 83.4546 68.096C80.1057 68.968 75.1985 71.8276 73.2148 74.24C70.4296 77.6271 68.8999 81.2314 67.5829 85.504C66.2752 89.7466 66.0526 92.3587 65.5349 96.768Z" fill="#2F3833"/>
</g>
<defs>
<clipPath id="clip0_5_2">
<rect width="128" height="128" fill="white"/>
</clipPath>
</defs>
</svg>
